<svg width="76" height="17" viewBox="0 0 76 17" fill="none" xmlns="http://www.w3.org/2000/svg">
<path d="M0.834517 16.5085V0.394176H6.29972V2.68892H3.86435V14.2138H6.29972V16.5085H0.834517ZM14.7132 5.83381C14.6706 5.36506 14.481 5.00071 14.1444 4.74077C13.812 4.47656 13.3368 4.34446 12.7189 4.34446C12.3098 4.34446 11.9689 4.39773 11.6962 4.50426C11.4235 4.6108 11.2189 4.75781 11.0826 4.94531C10.9462 5.12855 10.8759 5.33949 10.8716 5.57812C10.8631 5.77415 10.9015 5.94673 10.9867 6.09588C11.0762 6.24503 11.204 6.37713 11.3702 6.49219C11.5407 6.60298 11.7452 6.70099 11.9838 6.78622C12.2225 6.87145 12.4909 6.94602 12.7892 7.00994L13.9142 7.26562C14.562 7.40625 15.133 7.59375 15.6273 7.82812C16.1259 8.0625 16.5435 8.34162 16.8801 8.66548C17.2211 8.98935 17.4789 9.36222 17.6536 9.78409C17.8283 10.206 17.9178 10.679 17.9221 11.2031C17.9178 12.0298 17.709 12.7393 17.2956 13.3317C16.8823 13.924 16.2878 14.3778 15.5123 14.6932C14.7409 15.0085 13.8098 15.1662 12.7189 15.1662C11.6238 15.1662 10.6692 15.0021 9.85529 14.674C9.04137 14.3459 8.40856 13.8473 7.95685 13.1783C7.50515 12.5092 7.2729 11.6634 7.26012 10.6406H10.29C10.3155 11.0625 10.4284 11.4141 10.6287 11.6953C10.829 11.9766 11.1039 12.1896 11.4533 12.3345C11.807 12.4794 12.2161 12.5518 12.6806 12.5518C13.1067 12.5518 13.4689 12.4943 13.7672 12.3793C14.0698 12.2642 14.302 12.1044 14.464 11.8999C14.6259 11.6953 14.709 11.4609 14.7132 11.1967C14.709 10.9496 14.6323 10.7386 14.4831 10.5639C14.334 10.3849 14.1039 10.2315 13.7928 10.1037C13.486 9.97159 13.0939 9.85014 12.6167 9.73935L11.2488 9.41974C10.1152 9.1598 9.22248 8.74006 8.57049 8.16051C7.9185 7.5767 7.59464 6.78835 7.5989 5.79545C7.59464 4.9858 7.81197 4.27628 8.25089 3.6669C8.68981 3.05753 9.29705 2.58239 10.0726 2.24148C10.8482 1.90057 11.7324 1.73011 12.7253 1.73011C13.7395 1.73011 14.6195 1.9027 15.3652 2.24787C16.1152 2.58878 16.6969 3.06818 17.1103 3.68608C17.5236 4.30398 17.7346 5.01989 17.7431 5.83381H14.7132ZM31.4029 6.65199H28.2069C28.1642 6.32386 28.0769 6.0277 27.9448 5.76349C27.8127 5.49929 27.638 5.27344 27.4206 5.08594C27.2033 4.89844 26.9455 4.75568 26.6472 4.65767C26.3532 4.5554 26.0272 4.50426 25.6692 4.50426C25.0343 4.50426 24.4867 4.6598 24.0265 4.97088C23.5705 5.28196 23.2189 5.73153 22.9718 6.3196C22.7289 6.90767 22.6074 7.61932 22.6074 8.45455C22.6074 9.32386 22.731 10.0526 22.9782 10.6406C23.2296 11.2244 23.5811 11.6655 24.0328 11.9638C24.4888 12.2578 25.0279 12.4048 25.65 12.4048C25.9995 12.4048 26.3169 12.3601 26.6025 12.2706C26.8922 12.1811 27.1458 12.0511 27.3631 11.8807C27.5847 11.706 27.7658 11.495 27.9064 11.2479C28.0513 10.9964 28.1515 10.7131 28.2069 10.3977L31.4029 10.4169C31.3475 10.9964 31.1792 11.5675 30.8979 12.13C30.6209 12.6925 30.2395 13.206 29.7537 13.6705C29.2679 14.1307 28.6756 14.4972 27.9767 14.7699C27.2821 15.0426 26.4853 15.179 25.5861 15.179C24.4015 15.179 23.3404 14.919 22.4029 14.3991C21.4696 13.875 20.7324 13.1122 20.1912 12.1108C19.65 11.1094 19.3794 9.89062 19.3794 8.45455C19.3794 7.0142 19.6543 5.79332 20.204 4.7919C20.7537 3.79048 21.4973 3.02983 22.4348 2.50994C23.3723 1.99006 24.4228 1.73011 25.5861 1.73011C26.3787 1.73011 27.1117 1.84091 27.785 2.0625C28.4583 2.27983 29.0506 2.59943 29.562 3.02131C30.0733 3.43892 30.4888 3.95241 30.8084 4.56179C31.128 5.17116 31.3262 5.8679 31.4029 6.65199ZM35.7111 15H32.3105L36.7275 1.90909H40.9398L45.3567 15H41.9561L38.8816 5.20739H38.7793L35.7111 15ZM35.2573 9.84801H42.3652V12.2514H35.2573V9.84801ZM51.6049 15H46.7662V1.90909H51.5985C52.9324 1.90909 54.0808 2.17116 55.0439 2.69531C56.0112 3.2152 56.7569 3.9652 57.2811 4.94531C57.8052 5.92116 58.0673 7.08878 58.0673 8.44815C58.0673 9.81179 57.8052 10.9837 57.2811 11.9638C56.7612 12.9439 56.0176 13.696 55.0502 14.2202C54.0829 14.7401 52.9345 15 51.6049 15ZM49.9302 12.3026H51.4835C52.2164 12.3026 52.8365 12.179 53.3436 11.9318C53.8549 11.6804 54.2406 11.2734 54.5005 10.7109C54.7647 10.1442 54.8968 9.38991 54.8968 8.44815C54.8968 7.50639 54.7647 6.75639 54.5005 6.19815C54.2363 5.63565 53.8464 5.23082 53.3308 4.98366C52.8194 4.73224 52.1887 4.60653 51.4387 4.60653H49.9302V12.3026ZM59.9146 15V1.90909H69.0424V4.47869H63.0787V7.16335H68.5758V9.73935H63.0787V12.4304H69.0424V15H59.9146ZM75.8436 0.394176V16.5085H70.3784V14.2138H72.8137V2.68892H70.3784V0.394176H75.8436Z" fill="#FD9226"/>
</svg>
