<svg width="66" height="36" viewBox="0 0 66 36" fill="currentColor" xmlns="http://www.w3.org/2000/svg">
<path d="M0 0H15.5246V7.33981H7.56325V30.0583H15.5246V36H0V0Z"/>
<path d="M42.7667 11.4816L47.9814 5.767C45.8517 4.0369 39.9604 0.524277 33.5515 0.524277C25.5305 0.524277 20.0173 5.05049 20.0173 11.0447C20.0173 17.0388 24.1174 19.1359 29.2325 20.866C30.0286 21.1456 30.785 21.3728 31.4816 21.6C35.1438 22.7709 37.0744 23.4 36.6564 25.7418C36.1389 28.5728 30.5461 27.8214 28.8344 27.4019C27.481 27.0524 23.5203 25.6893 21.729 25.0602L18.5245 31.8233C20.7935 33.0466 26.8043 35.4757 32.6559 35.4757C39.9604 35.4757 47.4838 32.1728 47.4838 25.0427C47.4838 17.9825 41.7915 16.2175 36.8157 14.6621C36.7559 14.6447 36.7161 14.6272 36.6564 14.6097C31.6408 13.0369 29.551 11.9185 30.3471 9.64661C31.1432 7.39224 36.5569 7.21748 42.7667 11.4816Z"/>
<path d="M67.5246 36H52V28.6602H59.96131V5.94175H52V0H67.5246V36Z"/>
</svg>
