<svg width="668" height="162" viewBox="0 0 668 162" fill="none" xmlns="http://www.w3.org/2000/svg">
<path d="M136 149V151H30V149H136ZM164 121V30C164 14.536 151.464 2 136 2H30C14.536 2 2 14.536 2 30V121C2 136.464 14.536 149 30 149V151C13.4315 151 0 137.569 0 121V30C1.03082e-06 13.4315 13.4315 0 30 0H136C152.569 0 166 13.4315 166 30V121C166 137.569 152.569 151 136 151V149C151.464 149 164 136.464 164 121Z" fill="#E7713B"/>
<rect x="1" y="-1" width="131" height="45" rx="9" transform="matrix(1 0 0 -1 15 130)" stroke="#E7713B" stroke-width="2"/>
<path d="M49.3807 43V33.1818H50.8892V43H49.3807ZM50.1477 31.5455C49.8537 31.5455 49.6001 31.4453 49.3871 31.245C49.1783 31.0447 49.0739 30.804 49.0739 30.5227C49.0739 30.2415 49.1783 30.0007 49.3871 29.8004C49.6001 29.6001 49.8537 29.5 50.1477 29.5C50.4418 29.5 50.6932 29.6001 50.902 29.8004C51.1151 30.0007 51.2216 30.2415 51.2216 30.5227C51.2216 30.804 51.1151 31.0447 50.902 31.245C50.6932 31.4453 50.4418 31.5455 50.1477 31.5455ZM64.9022 36.4545C64.9022 37.8352 64.6529 39.0284 64.1543 40.0341C63.6557 41.0398 62.9718 41.8153 62.1025 42.3608C61.2331 42.9062 60.2402 43.179 59.1238 43.179C58.0073 43.179 57.0144 42.9062 56.1451 42.3608C55.2757 41.8153 54.5918 41.0398 54.0932 40.0341C53.5946 39.0284 53.3453 37.8352 53.3453 36.4545C53.3453 35.0739 53.5946 33.8807 54.0932 32.875C54.5918 31.8693 55.2757 31.0938 56.1451 30.5483C57.0144 30.0028 58.0073 29.7301 59.1238 29.7301C60.2402 29.7301 61.2331 30.0028 62.1025 30.5483C62.9718 31.0938 63.6557 31.8693 64.1543 32.875C64.6529 33.8807 64.9022 35.0739 64.9022 36.4545ZM63.3681 36.4545C63.3681 35.321 63.1784 34.3643 62.7992 33.5845C62.4242 32.8047 61.915 32.2145 61.2715 31.8139C60.6323 31.4134 59.9164 31.2131 59.1238 31.2131C58.3311 31.2131 57.6131 31.4134 56.9696 31.8139C56.3304 32.2145 55.8212 32.8047 55.4419 33.5845C55.0669 34.3643 54.8794 35.321 54.8794 36.4545C54.8794 37.5881 55.0669 38.5447 55.4419 39.3246C55.8212 40.1044 56.3304 40.6946 56.9696 41.0952C57.6131 41.4957 58.3311 41.696 59.1238 41.696C59.9164 41.696 60.6323 41.4957 61.2715 41.0952C61.915 40.6946 62.4242 40.1044 62.7992 39.3246C63.1784 38.5447 63.3681 37.5881 63.3681 36.4545ZM74.7267 33.1818C74.65 32.5341 74.339 32.0312 73.7935 31.6733C73.248 31.3153 72.579 31.1364 71.7864 31.1364C71.2069 31.1364 70.6998 31.2301 70.2651 31.4176C69.8347 31.6051 69.498 31.8629 69.2551 32.1911C69.0165 32.5192 68.8972 32.892 68.8972 33.3097C68.8972 33.6591 68.9803 33.9595 69.1465 34.2109C69.3169 34.4581 69.5343 34.6648 69.7985 34.831C70.0627 34.9929 70.3397 35.1271 70.6294 35.2337C70.9192 35.3359 71.1855 35.419 71.4284 35.483L72.758 35.8409C73.0989 35.9304 73.4782 36.054 73.8958 36.2116C74.3176 36.3693 74.7203 36.5845 75.1039 36.8572C75.4917 37.1257 75.8113 37.4709 76.0627 37.8928C76.3141 38.3146 76.4398 38.8324 76.4398 39.446C76.4398 40.1534 76.2544 40.7926 75.8837 41.3636C75.5172 41.9347 74.9803 42.3885 74.2729 42.7251C73.5698 43.0618 72.7154 43.2301 71.7097 43.2301C70.7722 43.2301 69.9604 43.0788 69.2743 42.7763C68.5925 42.4737 68.0556 42.0518 67.6635 41.5107C67.2757 40.9695 67.0563 40.3409 67.0051 39.625H68.6415C68.6841 40.1193 68.8503 40.5284 69.1401 40.8523C69.4341 41.1719 69.8049 41.4105 70.2523 41.5682C70.704 41.7216 71.1898 41.7983 71.7097 41.7983C72.3148 41.7983 72.8581 41.7003 73.3397 41.5043C73.8212 41.304 74.2026 41.027 74.4838 40.6733C74.7651 40.3153 74.9057 39.8977 74.9057 39.4205C74.9057 38.9858 74.7843 38.6321 74.5414 38.3594C74.2985 38.0866 73.9789 37.8651 73.5826 37.6946C73.1863 37.5241 72.758 37.375 72.2978 37.2472L70.687 36.7869C69.6642 36.4929 68.8546 36.0732 68.258 35.5277C67.6614 34.9822 67.3631 34.2685 67.3631 33.3864C67.3631 32.6534 67.5613 32.0142 67.9576 31.4688C68.3581 30.919 68.8951 30.4929 69.5684 30.1903C70.2459 29.8835 71.0023 29.7301 71.8375 29.7301C72.6813 29.7301 73.4313 29.8814 74.0875 30.1839C74.7438 30.4822 75.2637 30.8913 75.6472 31.4112C76.035 31.9311 76.2395 32.5213 76.2608 33.1818H74.7267ZM84.6456 43H82.9837L87.7905 29.9091H89.4268L94.2337 43H92.5717L88.6598 31.9801H88.5575L84.6456 43ZM85.2592 37.8864H91.9581V39.2926H85.2592V37.8864ZM96.0682 46.6818V33.1818H97.5256V34.7415H97.7045C97.8153 34.571 97.9688 34.3537 98.1648 34.0895C98.3651 33.821 98.6506 33.5824 99.0213 33.3736C99.3963 33.1605 99.9034 33.054 100.543 33.054C101.369 33.054 102.098 33.2607 102.729 33.674C103.359 34.0874 103.852 34.6733 104.205 35.4318C104.559 36.1903 104.736 37.0852 104.736 38.1165C104.736 39.1562 104.559 40.0575 104.205 40.8203C103.852 41.5788 103.362 42.1669 102.735 42.5845C102.109 42.9979 101.386 43.2045 100.568 43.2045C99.9375 43.2045 99.4325 43.1001 99.0533 42.8913C98.674 42.6783 98.3821 42.4375 98.1776 42.169C97.973 41.8963 97.8153 41.6705 97.7045 41.4915H97.5767V46.6818H96.0682ZM97.5511 38.0909C97.5511 38.8324 97.6598 39.4865 97.8771 40.0533C98.0945 40.6158 98.4119 41.0568 98.8295 41.3764C99.2472 41.6918 99.7585 41.8494 100.364 41.8494C100.994 41.8494 101.521 41.6832 101.942 41.3509C102.369 41.0142 102.688 40.5625 102.901 39.9957C103.119 39.4247 103.227 38.7898 103.227 38.0909C103.227 37.4006 103.121 36.7784 102.908 36.2244C102.699 35.6662 102.381 35.2251 101.955 34.9013C101.533 34.5732 101.003 34.4091 100.364 34.4091C99.75 34.4091 99.2344 34.5646 98.8168 34.8757C98.3991 35.1825 98.0838 35.6129 97.8707 36.1669C97.6577 36.7166 97.5511 37.358 97.5511 38.0909ZM107.037 46.6818V33.1818H108.494V34.7415H108.673C108.784 34.571 108.938 34.3537 109.134 34.0895C109.334 33.821 109.619 33.5824 109.99 33.3736C110.365 33.1605 110.872 33.054 111.511 33.054C112.338 33.054 113.067 33.2607 113.697 33.674C114.328 34.0874 114.82 34.6733 115.174 35.4318C115.528 36.1903 115.705 37.0852 115.705 38.1165C115.705 39.1562 115.528 40.0575 115.174 40.8203C114.82 41.5788 114.33 42.1669 113.704 42.5845C113.077 42.9979 112.355 43.2045 111.537 43.2045C110.906 43.2045 110.401 43.1001 110.022 42.8913C109.643 42.6783 109.351 42.4375 109.146 42.169C108.942 41.8963 108.784 41.6705 108.673 41.4915H108.545V46.6818H107.037ZM108.52 38.0909C108.52 38.8324 108.629 39.4865 108.846 40.0533C109.063 40.6158 109.381 41.0568 109.798 41.3764C110.216 41.6918 110.727 41.8494 111.332 41.8494C111.963 41.8494 112.489 41.6832 112.911 41.3509C113.337 41.0142 113.657 40.5625 113.87 39.9957C114.087 39.4247 114.196 38.7898 114.196 38.0909C114.196 37.4006 114.089 36.7784 113.876 36.2244C113.668 35.6662 113.35 35.2251 112.924 34.9013C112.502 34.5732 111.972 34.4091 111.332 34.4091C110.719 34.4091 110.203 34.5646 109.786 34.8757C109.368 35.1825 109.053 35.6129 108.839 36.1669C108.626 36.7166 108.52 37.358 108.52 38.0909Z" fill="black"/>
<path d="M531.122 43H529.46L534.267 29.9091H535.903L540.71 43H539.048L535.136 31.9801H535.034L531.122 43ZM531.736 37.8864H538.435V39.2926H531.736V37.8864ZM544.053 37.0938V43H542.545V33.1818H544.002V34.7159H544.13C544.36 34.2173 544.71 33.8168 545.178 33.5142C545.647 33.2074 546.252 33.054 546.994 33.054C547.658 33.054 548.24 33.1903 548.739 33.4631C549.237 33.7315 549.625 34.1406 549.902 34.6903C550.179 35.2358 550.317 35.9261 550.317 36.7614V43H548.809V36.8636C548.809 36.0923 548.609 35.4915 548.208 35.0611C547.808 34.6264 547.258 34.4091 546.559 34.4091C546.077 34.4091 545.647 34.5135 545.268 34.7223C544.893 34.9311 544.597 35.2358 544.379 35.6364C544.162 36.0369 544.053 36.5227 544.053 37.0938ZM556.781 43.2045C555.963 43.2045 555.241 42.9979 554.615 42.5845C553.988 42.1669 553.498 41.5788 553.144 40.8203C552.791 40.0575 552.614 39.1562 552.614 38.1165C552.614 37.0852 552.791 36.1903 553.144 35.4318C553.498 34.6733 553.99 34.0874 554.621 33.674C555.252 33.2607 555.98 33.054 556.807 33.054C557.446 33.054 557.951 33.1605 558.322 33.3736C558.697 33.5824 558.982 33.821 559.178 34.0895C559.379 34.3537 559.534 34.571 559.645 34.7415H559.773V29.9091H561.281V43H559.824V41.4915H559.645C559.534 41.6705 559.377 41.8963 559.172 42.169C558.968 42.4375 558.676 42.6783 558.296 42.8913C557.917 43.1001 557.412 43.2045 556.781 43.2045ZM556.986 41.8494C557.591 41.8494 558.102 41.6918 558.52 41.3764C558.938 41.0568 559.255 40.6158 559.472 40.0533C559.69 39.4865 559.798 38.8324 559.798 38.0909C559.798 37.358 559.692 36.7166 559.479 36.1669C559.266 35.6129 558.95 35.1825 558.533 34.8757C558.115 34.5646 557.6 34.4091 556.986 34.4091C556.347 34.4091 555.814 34.5732 555.388 34.9013C554.966 35.2251 554.649 35.6662 554.436 36.2244C554.227 36.7784 554.122 37.4006 554.122 38.0909C554.122 38.7898 554.229 39.4247 554.442 39.9957C554.659 40.5625 554.979 41.0142 555.401 41.3509C555.827 41.6832 556.355 41.8494 556.986 41.8494ZM564.254 43V33.1818H565.711V34.6648H565.813C565.992 34.179 566.316 33.7848 566.785 33.4822C567.254 33.1797 567.782 33.0284 568.37 33.0284C568.481 33.0284 568.619 33.0305 568.786 33.0348C568.952 33.0391 569.078 33.0455 569.163 33.054V34.5881C569.112 34.5753 568.994 34.5561 568.811 34.5305C568.632 34.5007 568.443 34.4858 568.242 34.4858C567.765 34.4858 567.339 34.5859 566.964 34.7862C566.593 34.9822 566.299 35.255 566.082 35.6044C565.869 35.9496 565.762 36.3437 565.762 36.7869V43H564.254ZM574.641 43.2045C573.754 43.2045 572.977 42.9936 572.308 42.5717C571.643 42.1499 571.123 41.5597 570.748 40.8011C570.377 40.0426 570.192 39.1562 570.192 38.142C570.192 37.1193 570.377 36.2266 570.748 35.4638C571.123 34.701 571.643 34.1087 572.308 33.6868C572.977 33.2649 573.754 33.054 574.641 33.054C575.527 33.054 576.303 33.2649 576.968 33.6868C577.637 34.1087 578.156 34.701 578.527 35.4638C578.902 36.2266 579.09 37.1193 579.09 38.142C579.09 39.1562 578.902 40.0426 578.527 40.8011C578.156 41.5597 577.637 42.1499 576.968 42.5717C576.303 42.9936 575.527 43.2045 574.641 43.2045ZM574.641 41.8494C575.314 41.8494 575.868 41.6768 576.303 41.3317C576.737 40.9865 577.059 40.5327 577.268 39.9702C577.477 39.4077 577.581 38.7983 577.581 38.142C577.581 37.4858 577.477 36.8743 577.268 36.3075C577.059 35.7408 576.737 35.2827 576.303 34.9332C575.868 34.5838 575.314 34.4091 574.641 34.4091C573.968 34.4091 573.414 34.5838 572.979 34.9332C572.544 35.2827 572.222 35.7408 572.014 36.3075C571.805 36.8743 571.7 37.4858 571.7 38.142C571.7 38.7983 571.805 39.4077 572.014 39.9702C572.222 40.5327 572.544 40.9865 572.979 41.3317C573.414 41.6768 573.968 41.8494 574.641 41.8494ZM581.392 43V33.1818H582.901V43H581.392ZM582.159 31.5455C581.865 31.5455 581.612 31.4453 581.399 31.245C581.19 31.0447 581.086 30.804 581.086 30.5227C581.086 30.2415 581.19 30.0007 581.399 29.8004C581.612 29.6001 581.865 29.5 582.159 29.5C582.453 29.5 582.705 29.6001 582.914 29.8004C583.127 30.0007 583.233 30.2415 583.233 30.5227C583.233 30.804 583.127 31.0447 582.914 31.245C582.705 31.4453 582.453 31.5455 582.159 31.5455ZM589.371 43.2045C588.553 43.2045 587.831 42.9979 587.204 42.5845C586.578 42.1669 586.088 41.5788 585.734 40.8203C585.381 40.0575 585.204 39.1562 585.204 38.1165C585.204 37.0852 585.381 36.1903 585.734 35.4318C586.088 34.6733 586.58 34.0874 587.211 33.674C587.841 33.2607 588.57 33.054 589.397 33.054C590.036 33.054 590.541 33.1605 590.912 33.3736C591.287 33.5824 591.572 33.821 591.768 34.0895C591.969 34.3537 592.124 34.571 592.235 34.7415H592.363V29.9091H593.871V43H592.414V41.4915H592.235C592.124 41.6705 591.966 41.8963 591.762 42.169C591.557 42.4375 591.265 42.6783 590.886 42.8913C590.507 43.1001 590.002 43.2045 589.371 43.2045ZM589.576 41.8494C590.181 41.8494 590.692 41.6918 591.11 41.3764C591.528 41.0568 591.845 40.6158 592.062 40.0533C592.28 39.4865 592.388 38.8324 592.388 38.0909C592.388 37.358 592.282 36.7166 592.069 36.1669C591.856 35.6129 591.54 35.1825 591.123 34.8757C590.705 34.5646 590.189 34.4091 589.576 34.4091C588.937 34.4091 588.404 34.5732 587.978 34.9013C587.556 35.2251 587.238 35.6662 587.025 36.2244C586.817 36.7784 586.712 37.4006 586.712 38.0909C586.712 38.7898 586.819 39.4247 587.032 39.9957C587.249 40.5625 587.569 41.0142 587.991 41.3509C588.417 41.6832 588.945 41.8494 589.576 41.8494ZM602.648 43H600.986L605.792 29.9091H607.429L612.236 43H610.574L606.662 31.9801H606.559L602.648 43ZM603.261 37.8864H609.96V39.2926H603.261V37.8864ZM614.07 46.6818V33.1818H615.528V34.7415H615.706C615.817 34.571 615.971 34.3537 616.167 34.0895C616.367 33.821 616.653 33.5824 617.023 33.3736C617.398 33.1605 617.905 33.054 618.545 33.054C619.371 33.054 620.1 33.2607 620.731 33.674C621.361 34.0874 621.854 34.6733 622.207 35.4318C622.561 36.1903 622.738 37.0852 622.738 38.1165C622.738 39.1562 622.561 40.0575 622.207 40.8203C621.854 41.5788 621.363 42.1669 620.737 42.5845C620.111 42.9979 619.388 43.2045 618.57 43.2045C617.939 43.2045 617.434 43.1001 617.055 42.8913C616.676 42.6783 616.384 42.4375 616.18 42.169C615.975 41.8963 615.817 41.6705 615.706 41.4915H615.579V46.6818H614.07ZM615.553 38.0909C615.553 38.8324 615.662 39.4865 615.879 40.0533C616.096 40.6158 616.414 41.0568 616.831 41.3764C617.249 41.6918 617.76 41.8494 618.366 41.8494C618.996 41.8494 619.523 41.6832 619.944 41.3509C620.371 41.0142 620.69 40.5625 620.903 39.9957C621.121 39.4247 621.229 38.7898 621.229 38.0909C621.229 37.4006 621.123 36.7784 620.91 36.2244C620.701 35.6662 620.383 35.2251 619.957 34.9013C619.535 34.5732 619.005 34.4091 618.366 34.4091C617.752 34.4091 617.236 34.5646 616.819 34.8757C616.401 35.1825 616.086 35.6129 615.873 36.1669C615.66 36.7166 615.553 37.358 615.553 38.0909ZM625.039 46.6818V33.1818H626.496V34.7415H626.675C626.786 34.571 626.939 34.3537 627.135 34.0895C627.336 33.821 627.621 33.5824 627.992 33.3736C628.367 33.1605 628.874 33.054 629.513 33.054C630.34 33.054 631.069 33.2607 631.699 33.674C632.33 34.0874 632.822 34.6733 633.176 35.4318C633.53 36.1903 633.706 37.0852 633.706 38.1165C633.706 39.1562 633.53 40.0575 633.176 40.8203C632.822 41.5788 632.332 42.1669 631.706 42.5845C631.079 42.9979 630.357 43.2045 629.539 43.2045C628.908 43.2045 628.403 43.1001 628.024 42.8913C627.645 42.6783 627.353 42.4375 627.148 42.169C626.944 41.8963 626.786 41.6705 626.675 41.4915H626.547V46.6818H625.039ZM626.522 38.0909C626.522 38.8324 626.631 39.4865 626.848 40.0533C627.065 40.6158 627.383 41.0568 627.8 41.3764C628.218 41.6918 628.729 41.8494 629.334 41.8494C629.965 41.8494 630.491 41.6832 630.913 41.3509C631.339 41.0142 631.659 40.5625 631.872 39.9957C632.089 39.4247 632.198 38.7898 632.198 38.0909C632.198 37.4006 632.091 36.7784 631.878 36.2244C631.67 35.6662 631.352 35.2251 630.926 34.9013C630.504 34.5732 629.974 34.4091 629.334 34.4091C628.721 34.4091 628.205 34.5646 627.787 34.8757C627.37 35.1825 627.055 35.6129 626.841 36.1669C626.628 36.7166 626.522 37.358 626.522 38.0909Z" fill="black"/>
<path d="M43.8743 97.2727C43.8061 96.697 43.5296 96.25 43.0447 95.9318C42.5599 95.6136 41.9652 95.4545 41.2607 95.4545C40.7455 95.4545 40.2947 95.5379 39.9084 95.7045C39.5258 95.8712 39.2266 96.1004 39.0107 96.392C38.7985 96.6837 38.6925 97.0152 38.6925 97.3864C38.6925 97.697 38.7663 97.964 38.9141 98.1875C39.0656 98.4072 39.2588 98.5909 39.4936 98.7386C39.7285 98.8826 39.9747 99.0019 40.2322 99.0966C40.4898 99.1875 40.7266 99.2614 40.9425 99.3182L42.1243 99.6364C42.4273 99.7159 42.7644 99.8258 43.1357 99.9659C43.5107 100.106 43.8686 100.297 44.2095 100.54C44.5542 100.778 44.8383 101.085 45.0618 101.46C45.2853 101.835 45.397 102.295 45.397 102.841C45.397 103.47 45.2322 104.038 44.9027 104.545C44.5769 105.053 44.0997 105.456 43.4709 105.756C42.8459 106.055 42.0864 106.205 41.1925 106.205C40.3591 106.205 39.6375 106.07 39.0277 105.801C38.4216 105.532 37.9444 105.157 37.5959 104.676C37.2512 104.195 37.0561 103.636 37.0107 103H38.4652C38.5031 103.439 38.6508 103.803 38.9084 104.091C39.1697 104.375 39.4993 104.587 39.897 104.727C40.2985 104.864 40.7304 104.932 41.1925 104.932C41.7304 104.932 42.2133 104.845 42.6413 104.67C43.0694 104.492 43.4084 104.246 43.6584 103.932C43.9084 103.614 44.0334 103.242 44.0334 102.818C44.0334 102.432 43.9254 102.117 43.7095 101.875C43.4936 101.633 43.2095 101.436 42.8572 101.284C42.505 101.133 42.1243 101 41.7152 100.886L40.2834 100.477C39.3743 100.216 38.6546 99.8428 38.1243 99.358C37.594 98.8731 37.3288 98.2386 37.3288 97.4545C37.3288 96.803 37.505 96.2348 37.8572 95.75C38.2133 95.2614 38.6906 94.8826 39.2891 94.6136C39.8913 94.3409 40.5637 94.2045 41.3061 94.2045C42.0561 94.2045 42.7228 94.339 43.3061 94.608C43.8894 94.8731 44.3516 95.2367 44.6925 95.6989C45.0372 96.161 45.219 96.6856 45.2379 97.2727H43.8743ZM49.5092 106L46.8501 97.2727H48.2592L50.1456 103.955H50.2365L52.1001 97.2727H53.532L55.3729 103.932H55.4638L57.3501 97.2727H58.7592L56.1001 106H54.782L52.8729 99.2955H52.7365L50.8274 106H49.5092ZM60.532 106V97.2727H61.8729V106H60.532ZM61.2138 95.8182C60.9524 95.8182 60.727 95.7292 60.5376 95.5511C60.352 95.3731 60.2592 95.1591 60.2592 94.9091C60.2592 94.6591 60.352 94.4451 60.5376 94.267C60.727 94.089 60.9524 94 61.2138 94C61.4751 94 61.6986 94.089 61.8842 94.267C62.0736 94.4451 62.1683 94.6591 62.1683 94.9091C62.1683 95.1591 62.0736 95.3731 61.8842 95.5511C61.6986 95.7292 61.4751 95.8182 61.2138 95.8182ZM68.2152 97.2727V98.4091H63.5107V97.2727H68.2152ZM64.9197 106V96.0682C64.9197 95.5682 65.0372 95.1515 65.272 94.8182C65.5069 94.4848 65.8118 94.2348 66.1868 94.0682C66.5618 93.9015 66.9576 93.8182 67.3743 93.8182C67.7038 93.8182 67.9728 93.8447 68.1811 93.8977C68.3894 93.9508 68.5447 94 68.647 94.0455L68.2607 95.2045C68.1925 95.1818 68.0978 95.1534 67.9766 95.1193C67.8591 95.0852 67.7038 95.0682 67.5107 95.0682C67.0675 95.0682 66.7474 95.1799 66.5504 95.4034C66.3572 95.6269 66.2607 95.9545 66.2607 96.3864V106H64.9197ZM73.8899 97.2727V98.4091H69.3672V97.2727H73.8899ZM70.6854 95.1818H72.0263V103.5C72.0263 103.879 72.0812 104.163 72.1911 104.352C72.3047 104.538 72.4486 104.663 72.6229 104.727C72.8009 104.788 72.9884 104.818 73.1854 104.818C73.3331 104.818 73.4543 104.811 73.549 104.795C73.6437 104.777 73.7195 104.761 73.7763 104.75L74.049 105.955C73.9581 105.989 73.8312 106.023 73.6683 106.057C73.5054 106.095 73.299 106.114 73.049 106.114C72.6702 106.114 72.299 106.032 71.9354 105.869C71.5755 105.706 71.2763 105.458 71.0376 105.125C70.8028 104.792 70.6854 104.371 70.6854 103.864V95.1818ZM81.7479 100.75V106H80.407V97.2727H81.7024V98.6364H81.8161C82.0206 98.1932 82.3312 97.8371 82.7479 97.5682C83.1645 97.2955 83.7024 97.1591 84.3615 97.1591C84.9524 97.1591 85.4695 97.2803 85.9126 97.5227C86.3558 97.7614 86.7005 98.125 86.9467 98.6136C87.1929 99.0985 87.3161 99.7121 87.3161 100.455V106H85.9751V100.545C85.9751 99.8598 85.7971 99.3258 85.4411 98.9432C85.085 98.5568 84.5964 98.3636 83.9751 98.3636C83.5471 98.3636 83.1645 98.4564 82.8274 98.642C82.4941 98.8277 82.2308 99.0985 82.0376 99.4545C81.8445 99.8106 81.7479 100.242 81.7479 100.75ZM93.3118 106.182C92.5239 106.182 91.8326 105.994 91.2379 105.619C90.647 105.244 90.1849 104.72 89.8516 104.045C89.522 103.371 89.3572 102.583 89.3572 101.682C89.3572 100.773 89.522 99.9792 89.8516 99.3011C90.1849 98.6231 90.647 98.0966 91.2379 97.7216C91.8326 97.3466 92.5239 97.1591 93.3118 97.1591C94.0997 97.1591 94.7891 97.3466 95.38 97.7216C95.9747 98.0966 96.4368 98.6231 96.7663 99.3011C97.0997 99.9792 97.2663 100.773 97.2663 101.682C97.2663 102.583 97.0997 103.371 96.7663 104.045C96.4368 104.72 95.9747 105.244 95.38 105.619C94.7891 105.994 94.0997 106.182 93.3118 106.182ZM93.3118 104.977C93.9103 104.977 94.4027 104.824 94.7891 104.517C95.1754 104.21 95.4614 103.807 95.647 103.307C95.8326 102.807 95.9254 102.265 95.9254 101.682C95.9254 101.098 95.8326 100.555 95.647 100.051C95.4614 99.5473 95.1754 99.1402 94.7891 98.8295C94.4027 98.5189 93.9103 98.3636 93.3118 98.3636C92.7133 98.3636 92.2209 98.5189 91.8345 98.8295C91.4482 99.1402 91.1622 99.5473 90.9766 100.051C90.791 100.555 90.6982 101.098 90.6982 101.682C90.6982 102.265 90.791 102.807 90.9766 103.307C91.1622 103.807 91.4482 104.21 91.8345 104.517C92.2209 104.824 92.7133 104.977 93.3118 104.977ZM100.654 100.75V106H99.3132V97.2727H100.609V98.6364H100.722C100.927 98.1932 101.237 97.8371 101.654 97.5682C102.071 97.2955 102.609 97.1591 103.268 97.1591C103.859 97.1591 104.376 97.2803 104.819 97.5227C105.262 97.7614 105.607 98.125 105.853 98.6136C106.099 99.0985 106.222 99.7121 106.222 100.455V106H104.881V100.545C104.881 99.8598 104.703 99.3258 104.347 98.9432C103.991 98.5568 103.503 98.3636 102.881 98.3636C102.453 98.3636 102.071 98.4564 101.734 98.642C101.4 98.8277 101.137 99.0985 100.944 99.4545C100.751 99.8106 100.654 100.242 100.654 100.75ZM113.673 100.386V101.636H108.582V100.386H113.673ZM123.85 94.3636H125.259V102.068C125.259 102.864 125.072 103.574 124.697 104.199C124.326 104.82 123.801 105.311 123.123 105.67C122.445 106.027 121.649 106.205 120.737 106.205C119.824 106.205 119.028 106.027 118.35 105.67C117.672 105.311 117.146 104.82 116.771 104.199C116.399 103.574 116.214 102.864 116.214 102.068V94.3636H117.623V101.955C117.623 102.523 117.748 103.028 117.998 103.472C118.248 103.911 118.604 104.258 119.066 104.511C119.532 104.761 120.089 104.886 120.737 104.886C121.384 104.886 121.941 104.761 122.407 104.511C122.873 104.258 123.229 103.911 123.475 103.472C123.725 103.028 123.85 102.523 123.85 101.955V94.3636ZM129.482 94.3636V106H128.073V94.3636H129.482ZM69.4055 124.182C68.5874 124.182 67.8828 123.989 67.2919 123.602C66.701 123.216 66.2464 122.684 65.9283 122.006C65.6101 121.328 65.451 120.553 65.451 119.682C65.451 118.795 65.6139 118.013 65.9396 117.335C66.2692 116.653 66.7275 116.121 67.3146 115.739C67.9055 115.352 68.5949 115.159 69.3828 115.159C69.9964 115.159 70.5495 115.273 71.0419 115.5C71.5343 115.727 71.9377 116.045 72.2521 116.455C72.5665 116.864 72.7616 117.341 72.8374 117.886H71.4964C71.3942 117.489 71.1669 117.136 70.8146 116.83C70.4661 116.519 69.9964 116.364 69.4055 116.364C68.8828 116.364 68.4245 116.5 68.0305 116.773C67.6404 117.042 67.3355 117.422 67.1158 117.915C66.8999 118.403 66.7919 118.977 66.7919 119.636C66.7919 120.311 66.898 120.898 67.1101 121.398C67.326 121.898 67.629 122.286 68.0192 122.562C68.4131 122.839 68.8752 122.977 69.4055 122.977C69.754 122.977 70.0703 122.917 70.3544 122.795C70.6385 122.674 70.879 122.5 71.076 122.273C71.273 122.045 71.4131 121.773 71.4964 121.455H72.8374C72.7616 121.97 72.5741 122.434 72.2749 122.847C71.9794 123.256 71.5874 123.581 71.0987 123.824C70.6139 124.062 70.0495 124.182 69.4055 124.182ZM78.343 124.182C77.5552 124.182 76.8639 123.994 76.2692 123.619C75.6783 123.244 75.2161 122.72 74.8828 122.045C74.5533 121.371 74.3885 120.583 74.3885 119.682C74.3885 118.773 74.5533 117.979 74.8828 117.301C75.2161 116.623 75.6783 116.097 76.2692 115.722C76.8639 115.347 77.5552 115.159 78.343 115.159C79.1309 115.159 79.8203 115.347 80.4112 115.722C81.0059 116.097 81.468 116.623 81.7976 117.301C82.1309 117.979 82.2976 118.773 82.2976 119.682C82.2976 120.583 82.1309 121.371 81.7976 122.045C81.468 122.72 81.0059 123.244 80.4112 123.619C79.8203 123.994 79.1309 124.182 78.343 124.182ZM78.343 122.977C78.9415 122.977 79.4339 122.824 79.8203 122.517C80.2067 122.21 80.4927 121.807 80.6783 121.307C80.8639 120.807 80.9567 120.265 80.9567 119.682C80.9567 119.098 80.8639 118.555 80.6783 118.051C80.4927 117.547 80.2067 117.14 79.8203 116.83C79.4339 116.519 78.9415 116.364 78.343 116.364C77.7446 116.364 77.2521 116.519 76.8658 116.83C76.4794 117.14 76.1934 117.547 76.0078 118.051C75.8222 118.555 75.7294 119.098 75.7294 119.682C75.7294 120.265 75.8222 120.807 76.0078 121.307C76.1934 121.807 76.4794 122.21 76.8658 122.517C77.2521 122.824 77.7446 122.977 78.343 122.977ZM87.6399 124.182C86.9126 124.182 86.2706 123.998 85.7138 123.631C85.157 123.259 84.7214 122.737 84.407 122.062C84.0926 121.384 83.9354 120.583 83.9354 119.659C83.9354 118.742 84.0926 117.947 84.407 117.273C84.7214 116.598 85.1589 116.078 85.7195 115.71C86.2801 115.343 86.9278 115.159 87.6626 115.159C88.2308 115.159 88.6797 115.254 89.0092 115.443C89.3426 115.629 89.5964 115.841 89.7706 116.08C89.9486 116.314 90.0869 116.508 90.1854 116.659H90.299V112.364H91.6399V124H90.3445V122.659H90.1854C90.0869 122.818 89.9467 123.019 89.7649 123.261C89.5831 123.5 89.3236 123.714 88.9865 123.903C88.6494 124.089 88.2005 124.182 87.6399 124.182ZM87.8217 122.977C88.3596 122.977 88.8142 122.837 89.1854 122.557C89.5566 122.273 89.8388 121.881 90.032 121.381C90.2251 120.877 90.3217 120.295 90.3217 119.636C90.3217 118.985 90.227 118.415 90.0376 117.926C89.8482 117.434 89.5679 117.051 89.1967 116.778C88.8255 116.502 88.3672 116.364 87.8217 116.364C87.2536 116.364 86.7801 116.509 86.4013 116.801C86.0263 117.089 85.7441 117.481 85.5547 117.977C85.3691 118.47 85.2763 119.023 85.2763 119.636C85.2763 120.258 85.371 120.822 85.5604 121.33C85.7536 121.833 86.0376 122.235 86.4126 122.534C86.7914 122.83 87.2611 122.977 87.8217 122.977ZM97.9411 124.182C97.1001 124.182 96.3748 123.996 95.7649 123.625C95.1589 123.25 94.6911 122.727 94.3615 122.057C94.0357 121.383 93.8729 120.598 93.8729 119.705C93.8729 118.811 94.0357 118.023 94.3615 117.341C94.6911 116.655 95.1494 116.121 95.7365 115.739C96.3274 115.352 97.0168 115.159 97.8047 115.159C98.2592 115.159 98.7081 115.235 99.1513 115.386C99.5945 115.538 99.9979 115.784 100.362 116.125C100.725 116.462 101.015 116.909 101.231 117.466C101.447 118.023 101.555 118.708 101.555 119.523V120.091H94.8274V118.932H100.191C100.191 118.439 100.093 118 99.8956 117.614C99.7024 117.227 99.4259 116.922 99.0661 116.699C98.71 116.475 98.2895 116.364 97.8047 116.364C97.2706 116.364 96.8085 116.496 96.4183 116.761C96.032 117.023 95.7346 117.364 95.5263 117.784C95.3179 118.205 95.2138 118.655 95.2138 119.136V119.909C95.2138 120.568 95.3274 121.127 95.5547 121.585C95.7857 122.04 96.1058 122.386 96.5149 122.625C96.924 122.86 97.3994 122.977 97.9411 122.977C98.2933 122.977 98.6115 122.928 98.8956 122.83C99.1835 122.727 99.4316 122.576 99.6399 122.375C99.8482 122.17 100.009 121.917 100.123 121.614L101.418 121.977C101.282 122.417 101.053 122.803 100.731 123.136C100.409 123.466 100.011 123.723 99.5376 123.909C99.0642 124.091 98.532 124.182 97.9411 124.182Z" fill="black"/>
<path d="M547.382 97.2727C547.314 96.697 547.037 96.25 546.553 95.9318C546.068 95.6136 545.473 95.4545 544.768 95.4545C544.253 95.4545 543.803 95.5379 543.416 95.7045C543.034 95.8712 542.734 96.1004 542.518 96.392C542.306 96.6837 542.2 97.0152 542.2 97.3864C542.2 97.697 542.274 97.964 542.422 98.1875C542.573 98.4072 542.767 98.5909 543.001 98.7386C543.236 98.8826 543.482 99.0019 543.74 99.0966C543.998 99.1875 544.234 99.2614 544.45 99.3182L545.632 99.6364C545.935 99.7159 546.272 99.8258 546.643 99.9659C547.018 100.106 547.376 100.297 547.717 100.54C548.062 100.778 548.346 101.085 548.57 101.46C548.793 101.835 548.905 102.295 548.905 102.841C548.905 103.47 548.74 104.038 548.411 104.545C548.085 105.053 547.607 105.456 546.979 105.756C546.354 106.055 545.594 106.205 544.7 106.205C543.867 106.205 543.145 106.07 542.536 105.801C541.929 105.532 541.452 105.157 541.104 104.676C540.759 104.195 540.564 103.636 540.518 103H541.973C542.011 103.439 542.159 103.803 542.416 104.091C542.678 104.375 543.007 104.587 543.405 104.727C543.806 104.864 544.238 104.932 544.7 104.932C545.238 104.932 545.721 104.845 546.149 104.67C546.577 104.492 546.916 104.246 547.166 103.932C547.416 103.614 547.541 103.242 547.541 102.818C547.541 102.432 547.433 102.117 547.217 101.875C547.001 101.633 546.717 101.436 546.365 101.284C546.013 101.133 545.632 101 545.223 100.886L543.791 100.477C542.882 100.216 542.162 99.8428 541.632 99.358C541.102 98.8731 540.837 98.2386 540.837 97.4545C540.837 96.803 541.013 96.2348 541.365 95.75C541.721 95.2614 542.198 94.8826 542.797 94.6136C543.399 94.3409 544.071 94.2045 544.814 94.2045C545.564 94.2045 546.231 94.339 546.814 94.608C547.397 94.8731 547.859 95.2367 548.2 95.6989C548.545 96.161 548.727 96.6856 548.746 97.2727H547.382ZM553.017 106L550.358 97.2727H551.767L553.653 103.955H553.744L555.608 97.2727H557.04L558.881 103.932H558.972L560.858 97.2727H562.267L559.608 106H558.29L556.381 99.2955H556.244L554.335 106H553.017ZM564.04 106V97.2727H565.381V106H564.04ZM564.722 95.8182C564.46 95.8182 564.235 95.7292 564.045 95.5511C563.86 95.3731 563.767 95.1591 563.767 94.9091C563.767 94.6591 563.86 94.4451 564.045 94.267C564.235 94.089 564.46 94 564.722 94C564.983 94 565.206 94.089 565.392 94.267C565.581 94.4451 565.676 94.6591 565.676 94.9091C565.676 95.1591 565.581 95.3731 565.392 95.5511C565.206 95.7292 564.983 95.8182 564.722 95.8182ZM571.723 97.2727V98.4091H567.018V97.2727H571.723ZM568.428 106V96.0682C568.428 95.5682 568.545 95.1515 568.78 94.8182C569.015 94.4848 569.32 94.2348 569.695 94.0682C570.07 93.9015 570.465 93.8182 570.882 93.8182C571.212 93.8182 571.481 93.8447 571.689 93.8977C571.897 93.9508 572.053 94 572.155 94.0455L571.768 95.2045C571.7 95.1818 571.606 95.1534 571.484 95.1193C571.367 95.0852 571.212 95.0682 571.018 95.0682C570.575 95.0682 570.255 95.1799 570.058 95.4034C569.865 95.6269 569.768 95.9545 569.768 96.3864V106H568.428ZM577.398 97.2727V98.4091H572.875V97.2727H577.398ZM574.193 95.1818H575.534V103.5C575.534 103.879 575.589 104.163 575.699 104.352C575.813 104.538 575.956 104.663 576.131 104.727C576.309 104.788 576.496 104.818 576.693 104.818C576.841 104.818 576.962 104.811 577.057 104.795C577.152 104.777 577.227 104.761 577.284 104.75L577.557 105.955C577.466 105.989 577.339 106.023 577.176 106.057C577.013 106.095 576.807 106.114 576.557 106.114C576.178 106.114 575.807 106.032 575.443 105.869C575.083 105.706 574.784 105.458 574.545 105.125C574.311 104.792 574.193 104.371 574.193 103.864V95.1818ZM584.097 106V94.3636H588.165C588.975 94.3636 589.644 94.5038 590.17 94.7841C590.697 95.0606 591.089 95.4337 591.347 95.9034C591.604 96.3693 591.733 96.8864 591.733 97.4545C591.733 97.9545 591.644 98.3674 591.466 98.6932C591.292 99.0189 591.061 99.2765 590.773 99.4659C590.489 99.6553 590.18 99.7955 589.847 99.8864V100C590.203 100.023 590.561 100.148 590.92 100.375C591.28 100.602 591.581 100.928 591.824 101.352C592.066 101.777 592.188 102.295 592.188 102.909C592.188 103.492 592.055 104.017 591.79 104.483C591.525 104.949 591.106 105.318 590.534 105.591C589.962 105.864 589.218 106 588.301 106H584.097ZM585.506 104.75H588.301C589.222 104.75 589.875 104.572 590.261 104.216C590.652 103.856 590.847 103.42 590.847 102.909C590.847 102.515 590.746 102.152 590.545 101.818C590.345 101.481 590.059 101.212 589.688 101.011C589.316 100.807 588.877 100.705 588.369 100.705H585.506V104.75ZM585.506 99.4773H588.119C588.544 99.4773 588.926 99.3939 589.267 99.2273C589.612 99.0606 589.884 98.8258 590.085 98.5227C590.29 98.2197 590.392 97.8636 590.392 97.4545C590.392 96.9432 590.214 96.5095 589.858 96.1534C589.502 95.7936 588.938 95.6136 588.165 95.6136H585.506V99.4773ZM594.321 106V97.2727H595.662V106H594.321ZM595.003 95.8182C594.741 95.8182 594.516 95.7292 594.327 95.5511C594.141 95.3731 594.048 95.1591 594.048 94.9091C594.048 94.6591 594.141 94.4451 594.327 94.267C594.516 94.089 594.741 94 595.003 94C595.264 94 595.488 94.089 595.673 94.267C595.863 94.4451 595.957 94.6591 595.957 94.9091C595.957 95.1591 595.863 95.3731 595.673 95.5511C595.488 95.7292 595.264 95.8182 595.003 95.8182ZM599.459 100.75V106H598.118V97.2727H599.413V98.6364H599.527C599.732 98.1932 600.042 97.8371 600.459 97.5682C600.875 97.2955 601.413 97.1591 602.072 97.1591C602.663 97.1591 603.18 97.2803 603.624 97.5227C604.067 97.7614 604.411 98.125 604.658 98.6136C604.904 99.0985 605.027 99.7121 605.027 100.455V106H603.686V100.545C603.686 99.8598 603.508 99.3258 603.152 98.9432C602.796 98.5568 602.307 98.3636 601.686 98.3636C601.258 98.3636 600.875 98.4564 600.538 98.642C600.205 98.8277 599.942 99.0985 599.749 99.4545C599.555 99.8106 599.459 100.242 599.459 100.75ZM610.045 106.205C609.492 106.205 608.991 106.1 608.54 105.892C608.089 105.68 607.731 105.375 607.466 104.977C607.201 104.576 607.068 104.091 607.068 103.523C607.068 103.023 607.167 102.617 607.364 102.307C607.561 101.992 607.824 101.746 608.153 101.568C608.483 101.39 608.847 101.258 609.244 101.17C609.646 101.08 610.049 101.008 610.455 100.955C610.985 100.886 611.415 100.835 611.744 100.801C612.078 100.763 612.32 100.701 612.472 100.614C612.627 100.527 612.705 100.375 612.705 100.159V100.114C612.705 99.553 612.551 99.1174 612.244 98.8068C611.941 98.4962 611.481 98.3409 610.864 98.3409C610.223 98.3409 609.722 98.4811 609.358 98.7614C608.994 99.0417 608.739 99.3409 608.591 99.6591L607.318 99.2045C607.545 98.6742 607.848 98.2614 608.227 97.9659C608.61 97.6667 609.027 97.4583 609.477 97.3409C609.932 97.2197 610.379 97.1591 610.818 97.1591C611.098 97.1591 611.42 97.1932 611.784 97.2614C612.152 97.3258 612.506 97.4602 612.847 97.6648C613.191 97.8693 613.477 98.178 613.705 98.5909C613.932 99.0038 614.045 99.5568 614.045 100.25V106H612.705V104.818H612.636C612.545 105.008 612.394 105.21 612.182 105.426C611.97 105.642 611.688 105.826 611.335 105.977C610.983 106.129 610.553 106.205 610.045 106.205ZM610.25 105C610.78 105 611.227 104.896 611.591 104.688C611.958 104.479 612.235 104.21 612.42 103.881C612.61 103.551 612.705 103.205 612.705 102.841V101.614C612.648 101.682 612.523 101.744 612.33 101.801C612.14 101.854 611.92 101.902 611.67 101.943C611.424 101.981 611.184 102.015 610.949 102.045C610.718 102.072 610.53 102.095 610.386 102.114C610.038 102.159 609.712 102.233 609.409 102.335C609.11 102.434 608.867 102.583 608.682 102.784C608.5 102.981 608.409 103.25 608.409 103.591C608.409 104.057 608.581 104.409 608.926 104.648C609.275 104.883 609.716 105 610.25 105ZM616.493 106V97.2727H617.788V98.5909H617.879C618.038 98.1591 618.326 97.8087 618.743 97.5398C619.16 97.2708 619.629 97.1364 620.152 97.1364C620.25 97.1364 620.374 97.1383 620.521 97.142C620.669 97.1458 620.781 97.1515 620.857 97.1591V98.5227C620.811 98.5114 620.707 98.4943 620.544 98.4716C620.385 98.4451 620.216 98.4318 620.038 98.4318C619.614 98.4318 619.235 98.5208 618.902 98.6989C618.572 98.8731 618.311 99.1155 618.118 99.4261C617.929 99.733 617.834 100.083 617.834 100.477V106H616.493ZM623.575 109.273C623.348 109.273 623.145 109.254 622.967 109.216C622.789 109.182 622.666 109.148 622.598 109.114L622.939 107.932C623.265 108.015 623.553 108.045 623.803 108.023C624.053 108 624.274 107.888 624.467 107.688C624.664 107.491 624.844 107.17 625.007 106.727L625.257 106.045L622.03 97.2727H623.484L625.893 104.227H625.984L628.393 97.2727H629.848L626.143 107.273C625.977 107.723 625.77 108.097 625.524 108.392C625.278 108.691 624.992 108.913 624.666 109.057C624.344 109.201 623.981 109.273 623.575 109.273ZM539.779 112.364V124H538.438V112.364H539.779ZM542.235 124V115.273H543.576V124H542.235ZM542.917 113.818C542.656 113.818 542.43 113.729 542.241 113.551C542.055 113.373 541.962 113.159 541.962 112.909C541.962 112.659 542.055 112.445 542.241 112.267C542.43 112.089 542.656 112 542.917 112C543.178 112 543.402 112.089 543.587 112.267C543.777 112.445 543.871 112.659 543.871 112.909C543.871 113.159 543.777 113.373 543.587 113.551C543.402 113.729 543.178 113.818 542.917 113.818ZM546.214 124V112.364H547.555V116.659H547.668C547.767 116.508 547.903 116.314 548.077 116.08C548.255 115.841 548.509 115.629 548.839 115.443C549.172 115.254 549.623 115.159 550.191 115.159C550.926 115.159 551.574 115.343 552.134 115.71C552.695 116.078 553.132 116.598 553.447 117.273C553.761 117.947 553.918 118.742 553.918 119.659C553.918 120.583 553.761 121.384 553.447 122.062C553.132 122.737 552.697 123.259 552.14 123.631C551.583 123.998 550.941 124.182 550.214 124.182C549.653 124.182 549.204 124.089 548.867 123.903C548.53 123.714 548.271 123.5 548.089 123.261C547.907 123.019 547.767 122.818 547.668 122.659H547.509V124H546.214ZM547.532 119.636C547.532 120.295 547.629 120.877 547.822 121.381C548.015 121.881 548.297 122.273 548.668 122.557C549.04 122.837 549.494 122.977 550.032 122.977C550.593 122.977 551.06 122.83 551.435 122.534C551.814 122.235 552.098 121.833 552.288 121.33C552.481 120.822 552.577 120.258 552.577 119.636C552.577 119.023 552.483 118.47 552.293 117.977C552.108 117.481 551.826 117.089 551.447 116.801C551.072 116.509 550.6 116.364 550.032 116.364C549.487 116.364 549.028 116.502 548.657 116.778C548.286 117.051 548.005 117.434 547.816 117.926C547.627 118.415 547.532 118.985 547.532 119.636ZM555.969 124V115.273H557.265V116.591H557.356C557.515 116.159 557.803 115.809 558.219 115.54C558.636 115.271 559.106 115.136 559.629 115.136C559.727 115.136 559.85 115.138 559.998 115.142C560.146 115.146 560.257 115.152 560.333 115.159V116.523C560.288 116.511 560.183 116.494 560.021 116.472C559.862 116.445 559.693 116.432 559.515 116.432C559.091 116.432 558.712 116.521 558.379 116.699C558.049 116.873 557.788 117.116 557.594 117.426C557.405 117.733 557.31 118.083 557.31 118.477V124H555.969ZM564.491 124.205C563.938 124.205 563.436 124.1 562.985 123.892C562.534 123.68 562.176 123.375 561.911 122.977C561.646 122.576 561.513 122.091 561.513 121.523C561.513 121.023 561.612 120.617 561.809 120.307C562.006 119.992 562.269 119.746 562.599 119.568C562.928 119.39 563.292 119.258 563.69 119.17C564.091 119.08 564.495 119.008 564.9 118.955C565.43 118.886 565.86 118.835 566.19 118.801C566.523 118.763 566.765 118.701 566.917 118.614C567.072 118.527 567.15 118.375 567.15 118.159V118.114C567.15 117.553 566.996 117.117 566.69 116.807C566.387 116.496 565.926 116.341 565.309 116.341C564.669 116.341 564.167 116.481 563.803 116.761C563.44 117.042 563.184 117.341 563.036 117.659L561.763 117.205C561.991 116.674 562.294 116.261 562.673 115.966C563.055 115.667 563.472 115.458 563.923 115.341C564.377 115.22 564.824 115.159 565.263 115.159C565.544 115.159 565.866 115.193 566.229 115.261C566.597 115.326 566.951 115.46 567.292 115.665C567.637 115.869 567.923 116.178 568.15 116.591C568.377 117.004 568.491 117.557 568.491 118.25V124H567.15V122.818H567.082C566.991 123.008 566.839 123.21 566.627 123.426C566.415 123.642 566.133 123.826 565.781 123.977C565.428 124.129 564.998 124.205 564.491 124.205ZM564.695 123C565.226 123 565.673 122.896 566.036 122.688C566.404 122.479 566.68 122.21 566.866 121.881C567.055 121.551 567.15 121.205 567.15 120.841V119.614C567.093 119.682 566.968 119.744 566.775 119.801C566.585 119.854 566.366 119.902 566.116 119.943C565.87 119.981 565.629 120.015 565.394 120.045C565.163 120.072 564.976 120.095 564.832 120.114C564.483 120.159 564.157 120.233 563.854 120.335C563.555 120.434 563.313 120.583 563.127 120.784C562.945 120.981 562.854 121.25 562.854 121.591C562.854 122.057 563.027 122.409 563.371 122.648C563.72 122.883 564.161 123 564.695 123ZM570.938 124V115.273H572.234V116.591H572.325C572.484 116.159 572.772 115.809 573.188 115.54C573.605 115.271 574.075 115.136 574.597 115.136C574.696 115.136 574.819 115.138 574.967 115.142C575.114 115.146 575.226 115.152 575.302 115.159V116.523C575.256 116.511 575.152 116.494 574.989 116.472C574.83 116.445 574.662 116.432 574.484 116.432C574.059 116.432 573.681 116.521 573.347 116.699C573.018 116.873 572.756 117.116 572.563 117.426C572.374 117.733 572.279 118.083 572.279 118.477V124H570.938ZM578.021 127.273C577.793 127.273 577.591 127.254 577.413 127.216C577.235 127.182 577.112 127.148 577.043 127.114L577.384 125.932C577.71 126.015 577.998 126.045 578.248 126.023C578.498 126 578.719 125.888 578.913 125.688C579.11 125.491 579.29 125.17 579.452 124.727L579.702 124.045L576.475 115.273H577.93L580.339 122.227H580.43L582.839 115.273H584.293L580.589 125.273C580.422 125.723 580.216 126.097 579.969 126.392C579.723 126.691 579.437 126.913 579.112 127.057C578.79 127.201 578.426 127.273 578.021 127.273ZM591.04 118.182C591.04 116.75 591.226 115.434 591.597 114.233C591.972 113.028 592.506 111.92 593.2 110.909H594.381C594.109 111.284 593.853 111.746 593.614 112.295C593.379 112.841 593.173 113.441 592.995 114.097C592.817 114.748 592.677 115.422 592.575 116.119C592.476 116.816 592.427 117.504 592.427 118.182C592.427 119.083 592.514 119.998 592.688 120.926C592.862 121.854 593.097 122.716 593.393 123.511C593.688 124.307 594.018 124.955 594.381 125.455H593.2C592.506 124.443 591.972 123.337 591.597 122.136C591.226 120.932 591.04 119.614 591.04 118.182ZM597.019 124H595.542L599.815 112.364H601.269L605.542 124H604.065L600.587 114.205H600.496L597.019 124ZM597.565 119.455H603.519V120.705H597.565V119.455ZM607.832 124H606.354L610.627 112.364H612.082L616.354 124H614.877L611.4 114.205H611.309L607.832 124ZM608.377 119.455H614.332V120.705H608.377V119.455ZM618.167 124V112.364H622.099C623.008 112.364 623.754 112.519 624.337 112.83C624.921 113.136 625.353 113.559 625.633 114.097C625.913 114.634 626.053 115.246 626.053 115.932C626.053 116.617 625.913 117.225 625.633 117.756C625.353 118.286 624.923 118.703 624.343 119.006C623.763 119.305 623.023 119.455 622.121 119.455H618.94V118.182H622.076C622.697 118.182 623.197 118.091 623.576 117.909C623.959 117.727 624.235 117.47 624.406 117.136C624.58 116.799 624.667 116.398 624.667 115.932C624.667 115.466 624.58 115.059 624.406 114.71C624.231 114.362 623.953 114.093 623.57 113.903C623.188 113.71 622.682 113.614 622.053 113.614H619.576V124H618.167ZM623.644 118.773L626.508 124H624.871L622.053 118.773H623.644ZM631.083 118.182C631.083 119.614 630.896 120.932 630.521 122.136C630.149 123.337 629.617 124.443 628.924 125.455H627.742C628.015 125.08 628.269 124.617 628.504 124.068C628.742 123.523 628.951 122.924 629.129 122.273C629.307 121.617 629.445 120.941 629.543 120.244C629.646 119.544 629.697 118.856 629.697 118.182C629.697 117.28 629.61 116.366 629.435 115.438C629.261 114.509 629.026 113.648 628.731 112.852C628.435 112.057 628.106 111.409 627.742 110.909H628.924C629.617 111.92 630.149 113.028 630.521 114.233C630.896 115.434 631.083 116.75 631.083 118.182Z" fill="black"/>
<path d="M517 87H650V73C650 67.4772 645.523 63 640 63H527C521.477 63 517 67.4772 517 73V87Z" fill="#D5ECBE"/>
<path d="M638 149V151H532V149H638ZM666 121V30C666 14.536 653.464 2 638 2H532C516.536 2 504 14.536 504 30V121C504 136.464 516.536 149 532 149V151C515.69 151 502.421 137.985 502.01 121.774L502 121V30C502 13.4315 515.431 6.44261e-08 532 0H638L638.774 0.00976562C654.985 0.420518 668 13.6904 668 30V121L667.99 121.774C667.586 137.728 654.728 150.586 638.774 150.99L638 151V149C653.464 149 666 136.464 666 121Z" fill="#51A637"/>
<rect x="1" y="-1" width="131" height="67" rx="9" transform="matrix(1 0 0 -1 517 130)" stroke="#51A637" stroke-width="2"/>
<path d="M640 65V63H527V65H640ZM648 73V85H519V73C519 68.5817 522.582 65 527 65V63C521.477 63 517 67.4772 517 73V87H650V73L649.987 72.4854C649.719 67.2017 645.35 63 640 63V65C644.418 65 648 68.5817 648 73Z" fill="#51A637"/>
<path d="M380 114.5C380 140.734 358.734 162 332.5 162C306.266 162 285 140.734 285 114.5C285 88.2665 306.266 67 332.5 67C358.734 67 380 88.2665 380 114.5Z" fill="#F0FAED"/>
<path d="M378 114.5C378 89.371 357.629 69 332.5 69C307.371 69 287 89.371 287 114.5C287 139.629 307.371 160 332.5 160V162C306.266 162 285 140.734 285 114.5C285 88.2665 306.266 67 332.5 67C358.734 67 380 88.2665 380 114.5C380 140.734 358.734 162 332.5 162V160C357.629 160 378 139.629 378 114.5Z" fill="#51A637"/>
<path d="M318.234 90.2727C318.165 89.697 317.889 89.25 317.404 88.9318C316.919 88.6136 316.325 88.4545 315.62 88.4545C315.105 88.4545 314.654 88.5379 314.268 88.7045C313.885 88.8712 313.586 89.1004 313.37 89.392C313.158 89.6837 313.052 90.0152 313.052 90.3864C313.052 90.697 313.126 90.964 313.273 91.1875C313.425 91.4072 313.618 91.5909 313.853 91.7386C314.088 91.8826 314.334 92.0019 314.592 92.0966C314.849 92.1875 315.086 92.2614 315.302 92.3182L316.484 92.6364C316.787 92.7159 317.124 92.8258 317.495 92.9659C317.87 93.1061 318.228 93.2973 318.569 93.5398C318.914 93.7784 319.198 94.0852 319.421 94.4602C319.645 94.8352 319.756 95.2955 319.756 95.8409C319.756 96.4697 319.592 97.0379 319.262 97.5455C318.936 98.053 318.459 98.4564 317.83 98.7557C317.205 99.0549 316.446 99.2045 315.552 99.2045C314.719 99.2045 313.997 99.0701 313.387 98.8011C312.781 98.5322 312.304 98.1572 311.955 97.6761C311.611 97.1951 311.415 96.6364 311.37 96H312.825C312.862 96.4394 313.01 96.803 313.268 97.0909C313.529 97.375 313.859 97.5871 314.256 97.7273C314.658 97.8636 315.09 97.9318 315.552 97.9318C316.09 97.9318 316.573 97.8447 317.001 97.6705C317.429 97.4924 317.768 97.2462 318.018 96.9318C318.268 96.6136 318.393 96.2424 318.393 95.8182C318.393 95.4318 318.285 95.1174 318.069 94.875C317.853 94.6326 317.569 94.4356 317.217 94.2841C316.864 94.1326 316.484 94 316.075 93.8864L314.643 93.4773C313.734 93.2159 313.014 92.8428 312.484 92.358C311.953 91.8731 311.688 91.2386 311.688 90.4545C311.688 89.803 311.864 89.2348 312.217 88.75C312.573 88.2614 313.05 87.8826 313.648 87.6136C314.251 87.3409 314.923 87.2045 315.665 87.2045C316.415 87.2045 317.082 87.339 317.665 87.608C318.249 87.8731 318.711 88.2367 319.052 88.6989C319.397 89.161 319.578 89.6856 319.597 90.2727H318.234ZM323.869 99L321.21 90.2727H322.619L324.505 96.9545H324.596L326.46 90.2727H327.891L329.732 96.9318H329.823L331.71 90.2727H333.119L330.46 99H329.141L327.232 92.2955H327.096L325.187 99H323.869ZM334.891 99V90.2727H336.232V99H334.891ZM335.573 88.8182C335.312 88.8182 335.086 88.7292 334.897 88.5511C334.711 88.3731 334.619 88.1591 334.619 87.9091C334.619 87.6591 334.711 87.4451 334.897 87.267C335.086 87.089 335.312 87 335.573 87C335.835 87 336.058 87.089 336.244 87.267C336.433 87.4451 336.528 87.6591 336.528 87.9091C336.528 88.1591 336.433 88.3731 336.244 88.5511C336.058 88.7292 335.835 88.8182 335.573 88.8182ZM342.575 90.2727V91.4091H337.87V90.2727H342.575ZM339.279 99V89.0682C339.279 88.5682 339.397 88.1515 339.631 87.8182C339.866 87.4848 340.171 87.2348 340.546 87.0682C340.921 86.9015 341.317 86.8182 341.734 86.8182C342.063 86.8182 342.332 86.8447 342.54 86.8977C342.749 86.9508 342.904 87 343.006 87.0455L342.62 88.2045C342.552 88.1818 342.457 88.1534 342.336 88.1193C342.219 88.0852 342.063 88.0682 341.87 88.0682C341.427 88.0682 341.107 88.1799 340.91 88.4034C340.717 88.6269 340.62 88.9545 340.62 89.3864V99H339.279ZM348.249 90.2727V91.4091H343.727V90.2727H348.249ZM345.045 88.1818H346.386V96.5C346.386 96.8788 346.441 97.1629 346.55 97.3523C346.664 97.5379 346.808 97.6629 346.982 97.7273C347.16 97.7879 347.348 97.8182 347.545 97.8182C347.692 97.8182 347.814 97.8106 347.908 97.7955C348.003 97.7765 348.079 97.7614 348.136 97.75L348.408 98.9545C348.317 98.9886 348.191 99.0227 348.028 99.0568C347.865 99.0947 347.658 99.1136 347.408 99.1136C347.03 99.1136 346.658 99.0322 346.295 98.8693C345.935 98.7064 345.636 98.4583 345.397 98.125C345.162 97.7917 345.045 97.3712 345.045 96.8636V88.1818ZM304.347 119H302.87L307.143 107.364H308.597L312.87 119H311.393L307.915 109.205H307.825L304.347 119ZM304.893 114.455H310.847V115.705H304.893V114.455ZM315.842 113.75V119H314.501V110.273H315.796V111.636H315.91C316.114 111.193 316.425 110.837 316.842 110.568C317.258 110.295 317.796 110.159 318.455 110.159C319.046 110.159 319.563 110.28 320.006 110.523C320.45 110.761 320.794 111.125 321.04 111.614C321.287 112.098 321.41 112.712 321.41 113.455V119H320.069V113.545C320.069 112.86 319.891 112.326 319.535 111.943C319.179 111.557 318.69 111.364 318.069 111.364C317.641 111.364 317.258 111.456 316.921 111.642C316.588 111.828 316.325 112.098 316.131 112.455C315.938 112.811 315.842 113.242 315.842 113.75ZM327.156 119.182C326.428 119.182 325.786 118.998 325.229 118.631C324.673 118.259 324.237 117.737 323.923 117.062C323.608 116.384 323.451 115.583 323.451 114.659C323.451 113.742 323.608 112.947 323.923 112.273C324.237 111.598 324.674 111.078 325.235 110.71C325.796 110.343 326.443 110.159 327.178 110.159C327.746 110.159 328.195 110.254 328.525 110.443C328.858 110.629 329.112 110.841 329.286 111.08C329.464 111.314 329.603 111.508 329.701 111.659H329.815V107.364H331.156V119H329.86V117.659H329.701C329.603 117.818 329.462 118.019 329.281 118.261C329.099 118.5 328.839 118.714 328.502 118.903C328.165 119.089 327.716 119.182 327.156 119.182ZM327.337 117.977C327.875 117.977 328.33 117.837 328.701 117.557C329.072 117.273 329.354 116.881 329.548 116.381C329.741 115.877 329.837 115.295 329.837 114.636C329.837 113.985 329.743 113.415 329.553 112.926C329.364 112.434 329.084 112.051 328.712 111.778C328.341 111.502 327.883 111.364 327.337 111.364C326.769 111.364 326.296 111.509 325.917 111.801C325.542 112.089 325.26 112.481 325.07 112.977C324.885 113.47 324.792 114.023 324.792 114.636C324.792 115.258 324.887 115.822 325.076 116.33C325.269 116.833 325.553 117.235 325.928 117.534C326.307 117.83 326.777 117.977 327.337 117.977ZM333.798 119V110.273H335.093V111.591H335.184C335.343 111.159 335.631 110.809 336.048 110.54C336.464 110.271 336.934 110.136 337.457 110.136C337.555 110.136 337.678 110.138 337.826 110.142C337.974 110.146 338.085 110.152 338.161 110.159V111.523C338.116 111.511 338.012 111.494 337.849 111.472C337.69 111.445 337.521 111.432 337.343 111.432C336.919 111.432 336.54 111.521 336.207 111.699C335.877 111.873 335.616 112.116 335.423 112.426C335.233 112.733 335.138 113.083 335.138 113.477V119H333.798ZM343.031 119.182C342.243 119.182 341.551 118.994 340.957 118.619C340.366 118.244 339.904 117.72 339.57 117.045C339.241 116.371 339.076 115.583 339.076 114.682C339.076 113.773 339.241 112.979 339.57 112.301C339.904 111.623 340.366 111.097 340.957 110.722C341.551 110.347 342.243 110.159 343.031 110.159C343.818 110.159 344.508 110.347 345.099 110.722C345.693 111.097 346.156 111.623 346.485 112.301C346.818 112.979 346.985 113.773 346.985 114.682C346.985 115.583 346.818 116.371 346.485 117.045C346.156 117.72 345.693 118.244 345.099 118.619C344.508 118.994 343.818 119.182 343.031 119.182ZM343.031 117.977C343.629 117.977 344.121 117.824 344.508 117.517C344.894 117.21 345.18 116.807 345.366 116.307C345.551 115.807 345.644 115.265 345.644 114.682C345.644 114.098 345.551 113.555 345.366 113.051C345.18 112.547 344.894 112.14 344.508 111.83C344.121 111.519 343.629 111.364 343.031 111.364C342.432 111.364 341.94 111.519 341.553 111.83C341.167 112.14 340.881 112.547 340.695 113.051C340.51 113.555 340.417 114.098 340.417 114.682C340.417 115.265 340.51 115.807 340.695 116.307C340.881 116.807 341.167 117.21 341.553 117.517C341.94 117.824 342.432 117.977 343.031 117.977ZM349.032 119V110.273H350.373V119H349.032ZM349.714 108.818C349.452 108.818 349.227 108.729 349.038 108.551C348.852 108.373 348.759 108.159 348.759 107.909C348.759 107.659 348.852 107.445 349.038 107.267C349.227 107.089 349.452 107 349.714 107C349.975 107 350.199 107.089 350.384 107.267C350.574 107.445 350.668 107.659 350.668 107.909C350.668 108.159 350.574 108.373 350.384 108.551C350.199 108.729 349.975 108.818 349.714 108.818ZM356.124 119.182C355.397 119.182 354.755 118.998 354.198 118.631C353.641 118.259 353.206 117.737 352.891 117.062C352.577 116.384 352.42 115.583 352.42 114.659C352.42 113.742 352.577 112.947 352.891 112.273C353.206 111.598 353.643 111.078 354.204 110.71C354.764 110.343 355.412 110.159 356.147 110.159C356.715 110.159 357.164 110.254 357.494 110.443C357.827 110.629 358.081 110.841 358.255 111.08C358.433 111.314 358.571 111.508 358.67 111.659H358.783V107.364H360.124V119H358.829V117.659H358.67C358.571 117.818 358.431 118.019 358.249 118.261C358.067 118.5 357.808 118.714 357.471 118.903C357.134 119.089 356.685 119.182 356.124 119.182ZM356.306 117.977C356.844 117.977 357.299 117.837 357.67 117.557C358.041 117.273 358.323 116.881 358.516 116.381C358.71 115.877 358.806 115.295 358.806 114.636C358.806 113.985 358.711 113.415 358.522 112.926C358.333 112.434 358.052 112.051 357.681 111.778C357.31 111.502 356.852 111.364 356.306 111.364C355.738 111.364 355.264 111.509 354.886 111.801C354.511 112.089 354.228 112.481 354.039 112.977C353.853 113.47 353.761 114.023 353.761 114.636C353.761 115.258 353.855 115.822 354.045 116.33C354.238 116.833 354.522 117.235 354.897 117.534C355.276 117.83 355.746 117.977 356.306 117.977ZM308.921 131H307.512C307.429 130.595 307.283 130.239 307.075 129.932C306.87 129.625 306.62 129.367 306.325 129.159C306.033 128.947 305.709 128.788 305.353 128.682C304.997 128.576 304.626 128.523 304.239 128.523C303.535 128.523 302.897 128.701 302.325 129.057C301.756 129.413 301.304 129.938 300.967 130.631C300.633 131.324 300.467 132.174 300.467 133.182C300.467 134.189 300.633 135.04 300.967 135.733C301.304 136.426 301.756 136.951 302.325 137.307C302.897 137.663 303.535 137.841 304.239 137.841C304.626 137.841 304.997 137.788 305.353 137.682C305.709 137.576 306.033 137.419 306.325 137.21C306.62 136.998 306.87 136.739 307.075 136.432C307.283 136.121 307.429 135.765 307.512 135.364H308.921C308.815 135.958 308.622 136.491 308.342 136.96C308.061 137.43 307.713 137.83 307.296 138.159C306.879 138.485 306.412 138.733 305.893 138.903C305.378 139.074 304.826 139.159 304.239 139.159C303.247 139.159 302.364 138.917 301.592 138.432C300.819 137.947 300.211 137.258 299.768 136.364C299.325 135.47 299.103 134.409 299.103 133.182C299.103 131.955 299.325 130.894 299.768 130C300.211 129.106 300.819 128.417 301.592 127.932C302.364 127.447 303.247 127.205 304.239 127.205C304.826 127.205 305.378 127.29 305.893 127.46C306.412 127.631 306.879 127.881 307.296 128.21C307.713 128.536 308.061 128.934 308.342 129.403C308.622 129.869 308.815 130.402 308.921 131ZM314.562 139.182C313.774 139.182 313.083 138.994 312.488 138.619C311.897 138.244 311.435 137.72 311.102 137.045C310.772 136.371 310.607 135.583 310.607 134.682C310.607 133.773 310.772 132.979 311.102 132.301C311.435 131.623 311.897 131.097 312.488 130.722C313.083 130.347 313.774 130.159 314.562 130.159C315.35 130.159 316.039 130.347 316.63 130.722C317.225 131.097 317.687 131.623 318.016 132.301C318.35 132.979 318.516 133.773 318.516 134.682C318.516 135.583 318.35 136.371 318.016 137.045C317.687 137.72 317.225 138.244 316.63 138.619C316.039 138.994 315.35 139.182 314.562 139.182ZM314.562 137.977C315.16 137.977 315.653 137.824 316.039 137.517C316.425 137.21 316.711 136.807 316.897 136.307C317.083 135.807 317.175 135.265 317.175 134.682C317.175 134.098 317.083 133.555 316.897 133.051C316.711 132.547 316.425 132.14 316.039 131.83C315.653 131.519 315.16 131.364 314.562 131.364C313.963 131.364 313.471 131.519 313.085 131.83C312.698 132.14 312.412 132.547 312.227 133.051C312.041 133.555 311.948 134.098 311.948 134.682C311.948 135.265 312.041 135.807 312.227 136.307C312.412 136.807 312.698 137.21 313.085 137.517C313.471 137.824 313.963 137.977 314.562 137.977ZM320.563 139V130.273H321.859V131.636H321.972C322.154 131.17 322.448 130.809 322.853 130.551C323.258 130.29 323.745 130.159 324.313 130.159C324.889 130.159 325.368 130.29 325.751 130.551C326.137 130.809 326.438 131.17 326.654 131.636H326.745C326.969 131.186 327.304 130.828 327.751 130.562C328.198 130.294 328.734 130.159 329.359 130.159C330.139 130.159 330.777 130.403 331.273 130.892C331.77 131.377 332.018 132.133 332.018 133.159V139H330.677V133.159C330.677 132.515 330.501 132.055 330.148 131.778C329.796 131.502 329.381 131.364 328.904 131.364C328.29 131.364 327.815 131.549 327.478 131.92C327.141 132.288 326.972 132.754 326.972 133.318V139H325.609V133.023C325.609 132.527 325.448 132.127 325.126 131.824C324.804 131.517 324.389 131.364 323.881 131.364C323.533 131.364 323.207 131.456 322.904 131.642C322.605 131.828 322.362 132.085 322.177 132.415C321.995 132.741 321.904 133.117 321.904 133.545V139H320.563ZM334.469 142.273V130.273H335.765V131.659H335.924C336.022 131.508 336.159 131.314 336.333 131.08C336.511 130.841 336.765 130.629 337.094 130.443C337.428 130.254 337.879 130.159 338.447 130.159C339.182 130.159 339.829 130.343 340.39 130.71C340.951 131.078 341.388 131.598 341.702 132.273C342.017 132.947 342.174 133.742 342.174 134.659C342.174 135.583 342.017 136.384 341.702 137.062C341.388 137.737 340.952 138.259 340.396 138.631C339.839 138.998 339.197 139.182 338.469 139.182C337.909 139.182 337.46 139.089 337.123 138.903C336.786 138.714 336.526 138.5 336.344 138.261C336.163 138.019 336.022 137.818 335.924 137.659H335.81V142.273H334.469ZM335.788 134.636C335.788 135.295 335.884 135.877 336.077 136.381C336.271 136.881 336.553 137.273 336.924 137.557C337.295 137.837 337.75 137.977 338.288 137.977C338.848 137.977 339.316 137.83 339.691 137.534C340.07 137.235 340.354 136.833 340.543 136.33C340.737 135.822 340.833 135.258 340.833 134.636C340.833 134.023 340.738 133.47 340.549 132.977C340.363 132.481 340.081 132.089 339.702 131.801C339.327 131.509 338.856 131.364 338.288 131.364C337.742 131.364 337.284 131.502 336.913 131.778C336.541 132.051 336.261 132.434 336.072 132.926C335.882 133.415 335.788 133.985 335.788 134.636ZM344.219 139V130.273H345.56V139H344.219ZM344.901 128.818C344.64 128.818 344.415 128.729 344.225 128.551C344.04 128.373 343.947 128.159 343.947 127.909C343.947 127.659 344.04 127.445 344.225 127.267C344.415 127.089 344.64 127 344.901 127C345.163 127 345.386 127.089 345.572 127.267C345.761 127.445 345.856 127.659 345.856 127.909C345.856 128.159 345.761 128.373 345.572 128.551C345.386 128.729 345.163 128.818 344.901 128.818ZM349.357 127.364V139H348.016V127.364H349.357ZM355.472 139.182C354.631 139.182 353.906 138.996 353.296 138.625C352.69 138.25 352.222 137.727 351.893 137.057C351.567 136.383 351.404 135.598 351.404 134.705C351.404 133.811 351.567 133.023 351.893 132.341C352.222 131.655 352.681 131.121 353.268 130.739C353.859 130.352 354.548 130.159 355.336 130.159C355.79 130.159 356.239 130.235 356.683 130.386C357.126 130.538 357.529 130.784 357.893 131.125C358.256 131.462 358.546 131.909 358.762 132.466C358.978 133.023 359.086 133.708 359.086 134.523V135.091H352.359V133.932H357.722C357.722 133.439 357.624 133 357.427 132.614C357.234 132.227 356.957 131.922 356.597 131.699C356.241 131.475 355.821 131.364 355.336 131.364C354.802 131.364 354.34 131.496 353.95 131.761C353.563 132.023 353.266 132.364 353.058 132.784C352.849 133.205 352.745 133.655 352.745 134.136V134.909C352.745 135.568 352.859 136.127 353.086 136.585C353.317 137.04 353.637 137.386 354.046 137.625C354.455 137.86 354.931 137.977 355.472 137.977C355.825 137.977 356.143 137.928 356.427 137.83C356.715 137.727 356.963 137.576 357.171 137.375C357.379 137.17 357.54 136.917 357.654 136.614L358.95 136.977C358.813 137.417 358.584 137.803 358.262 138.136C357.94 138.466 357.542 138.723 357.069 138.909C356.595 139.091 356.063 139.182 355.472 139.182ZM361.126 139V130.273H362.421V131.591H362.512C362.671 131.159 362.959 130.809 363.376 130.54C363.792 130.271 364.262 130.136 364.785 130.136C364.883 130.136 365.006 130.138 365.154 130.142C365.302 130.146 365.414 130.152 365.489 130.159V131.523C365.444 131.511 365.34 131.494 365.177 131.472C365.018 131.445 364.849 131.432 364.671 131.432C364.247 131.432 363.868 131.521 363.535 131.699C363.205 131.873 362.944 132.116 362.751 132.426C362.561 132.733 362.467 133.083 362.467 133.477V139H361.126Z" fill="black"/>
<path d="M148 117L148 115L281 115L281 117L148 117Z" fill="#7F7F7F"/>
<path d="M286 116L276.25 121.196L276.25 110.804L286 116Z" fill="#7F7F7F"/>
<path d="M380 117L380 115L513 115L513 117L380 117Z" fill="#7F7F7F"/>
<path d="M518 116L508.25 121.196L508.25 110.804L518 116Z" fill="#7F7F7F"/>
<path d="M543.34 69.3636H544.749V77.6818C544.749 78.4242 544.613 79.0549 544.34 79.5739C544.067 80.0928 543.683 80.4867 543.187 80.7557C542.691 81.0246 542.105 81.1591 541.431 81.1591C540.795 81.1591 540.228 81.0436 539.732 80.8125C539.236 80.5777 538.846 80.2443 538.562 79.8125C538.278 79.3807 538.136 78.8674 538.136 78.2727H539.522C539.522 78.6023 539.603 78.8902 539.766 79.1364C539.933 79.3788 540.16 79.5682 540.448 79.7045C540.736 79.8409 541.064 79.9091 541.431 79.9091C541.836 79.9091 542.181 79.8239 542.465 79.6534C542.749 79.483 542.965 79.233 543.113 78.9034C543.264 78.5701 543.34 78.1629 543.34 77.6818V69.3636ZM549.96 81.2045C549.406 81.2045 548.905 81.1004 548.454 80.892C548.003 80.6799 547.645 80.375 547.38 79.9773C547.115 79.5758 546.982 79.0909 546.982 78.5227C546.982 78.0227 547.081 77.6174 547.278 77.3068C547.475 76.9924 547.738 76.7462 548.067 76.5682C548.397 76.3902 548.761 76.2576 549.158 76.1705C549.56 76.0795 549.963 76.0076 550.369 75.9545C550.899 75.8864 551.329 75.8352 551.658 75.8011C551.992 75.7633 552.234 75.7008 552.386 75.6136C552.541 75.5265 552.619 75.375 552.619 75.1591V75.1136C552.619 74.553 552.465 74.1174 552.158 73.8068C551.855 73.4962 551.395 73.3409 550.778 73.3409C550.138 73.3409 549.636 73.4811 549.272 73.7614C548.908 74.0417 548.653 74.3409 548.505 74.6591L547.232 74.2045C547.46 73.6742 547.763 73.2614 548.141 72.9659C548.524 72.6667 548.941 72.4583 549.391 72.3409C549.846 72.2197 550.293 72.1591 550.732 72.1591C551.013 72.1591 551.335 72.1932 551.698 72.2614C552.066 72.3258 552.42 72.4602 552.761 72.6648C553.105 72.8693 553.391 73.178 553.619 73.5909C553.846 74.0038 553.96 74.5568 553.96 75.25V81H552.619V79.8182H552.55C552.46 80.0076 552.308 80.2102 552.096 80.4261C551.884 80.642 551.602 80.8258 551.249 80.9773C550.897 81.1288 550.467 81.2045 549.96 81.2045ZM550.164 80C550.694 80 551.141 79.8958 551.505 79.6875C551.872 79.4792 552.149 79.2102 552.335 78.8807C552.524 78.5511 552.619 78.2045 552.619 77.8409V76.6136C552.562 76.6818 552.437 76.7443 552.244 76.8011C552.054 76.8542 551.835 76.9015 551.585 76.9432C551.338 76.9811 551.098 77.0152 550.863 77.0455C550.632 77.072 550.444 77.0947 550.3 77.1136C549.952 77.1591 549.626 77.233 549.323 77.3352C549.024 77.4337 548.781 77.5833 548.596 77.7841C548.414 77.9811 548.323 78.25 548.323 78.5909C548.323 79.0568 548.496 79.4091 548.84 79.6477C549.189 79.8826 549.63 80 550.164 80ZM563.231 72.2727L560.004 81H558.64L555.413 72.2727H556.867L559.276 79.2273H559.367L561.776 72.2727H563.231ZM567.303 81.2045C566.75 81.2045 566.248 81.1004 565.798 80.892C565.347 80.6799 564.989 80.375 564.724 79.9773C564.459 79.5758 564.326 79.0909 564.326 78.5227C564.326 78.0227 564.424 77.6174 564.621 77.3068C564.818 76.9924 565.082 76.7462 565.411 76.5682C565.741 76.3902 566.104 76.2576 566.502 76.1705C566.904 76.0795 567.307 76.0076 567.712 75.9545C568.243 75.8864 568.673 75.8352 569.002 75.8011C569.335 75.7633 569.578 75.7008 569.729 75.6136C569.885 75.5265 569.962 75.375 569.962 75.1591V75.1136C569.962 74.553 569.809 74.1174 569.502 73.8068C569.199 73.4962 568.739 73.3409 568.121 73.3409C567.481 73.3409 566.979 73.4811 566.616 73.7614C566.252 74.0417 565.996 74.3409 565.849 74.6591L564.576 74.2045C564.803 73.6742 565.106 73.2614 565.485 72.9659C565.868 72.6667 566.284 72.4583 566.735 72.3409C567.19 72.2197 567.637 72.1591 568.076 72.1591C568.356 72.1591 568.678 72.1932 569.042 72.2614C569.409 72.3258 569.763 72.4602 570.104 72.6648C570.449 72.8693 570.735 73.178 570.962 73.5909C571.19 74.0038 571.303 74.5568 571.303 75.25V81H569.962V79.8182H569.894C569.803 80.0076 569.652 80.2102 569.44 80.4261C569.228 80.642 568.945 80.8258 568.593 80.9773C568.241 81.1288 567.811 81.2045 567.303 81.2045ZM567.508 80C568.038 80 568.485 79.8958 568.849 79.6875C569.216 79.4792 569.493 79.2102 569.678 78.8807C569.868 78.5511 569.962 78.2045 569.962 77.8409V76.6136C569.906 76.6818 569.781 76.7443 569.587 76.8011C569.398 76.8542 569.178 76.9015 568.928 76.9432C568.682 76.9811 568.442 77.0152 568.207 77.0455C567.976 77.072 567.788 77.0947 567.644 77.1136C567.296 77.1591 566.97 77.233 566.667 77.3352C566.368 77.4337 566.125 77.5833 565.94 77.7841C565.758 77.9811 565.667 78.25 565.667 78.5909C565.667 79.0568 565.839 79.4091 566.184 79.6477C566.532 79.8826 566.974 80 567.508 80ZM582.364 68.8182L578.614 82.75H577.387L581.137 68.8182H582.364ZM588.636 81V69.3636H590.045V75.1364H590.181L595.408 69.3636H597.249L592.363 74.6136L597.249 81H595.545L591.499 75.5909L590.045 77.2273V81H588.636ZM601.796 81.1818C601.008 81.1818 600.317 80.9943 599.722 80.6193C599.131 80.2443 598.669 79.7197 598.336 79.0455C598.006 78.3712 597.842 77.5833 597.842 76.6818C597.842 75.7727 598.006 74.9792 598.336 74.3011C598.669 73.6231 599.131 73.0966 599.722 72.7216C600.317 72.3466 601.008 72.1591 601.796 72.1591C602.584 72.1591 603.273 72.3466 603.864 72.7216C604.459 73.0966 604.921 73.6231 605.251 74.3011C605.584 74.9792 605.751 75.7727 605.751 76.6818C605.751 77.5833 605.584 78.3712 605.251 79.0455C604.921 79.7197 604.459 80.2443 603.864 80.6193C603.273 80.9943 602.584 81.1818 601.796 81.1818ZM601.796 79.9773C602.395 79.9773 602.887 79.8239 603.273 79.517C603.66 79.2102 603.946 78.8068 604.131 78.3068C604.317 77.8068 604.41 77.2652 604.41 76.6818C604.41 76.0985 604.317 75.5549 604.131 75.0511C603.946 74.5473 603.66 74.1402 603.273 73.8295C602.887 73.5189 602.395 73.3636 601.796 73.3636C601.198 73.3636 600.705 73.5189 600.319 73.8295C599.933 74.1402 599.647 74.5473 599.461 75.0511C599.275 75.5549 599.183 76.0985 599.183 76.6818C599.183 77.2652 599.275 77.8068 599.461 78.3068C599.647 78.8068 599.933 79.2102 600.319 79.517C600.705 79.8239 601.198 79.9773 601.796 79.9773ZM611.593 72.2727V73.4091H607.07V72.2727H611.593ZM608.388 70.1818H609.729V78.5C609.729 78.8788 609.784 79.1629 609.894 79.3523C610.008 79.5379 610.152 79.6629 610.326 79.7273C610.504 79.7879 610.692 79.8182 610.888 79.8182C611.036 79.8182 611.157 79.8106 611.252 79.7955C611.347 79.7765 611.423 79.7614 611.479 79.75L611.752 80.9545C611.661 80.9886 611.534 81.0227 611.371 81.0568C611.209 81.0947 611.002 81.1136 610.752 81.1136C610.373 81.1136 610.002 81.0322 609.638 80.8693C609.279 80.7064 608.979 80.4583 608.741 80.125C608.506 79.7917 608.388 79.3712 608.388 78.8636V70.1818ZM615.138 69.3636V81H613.798V69.3636H615.138ZM617.594 81V72.2727H618.935V81H617.594ZM618.276 70.8182C618.015 70.8182 617.79 70.7292 617.6 70.5511C617.415 70.3731 617.322 70.1591 617.322 69.9091C617.322 69.6591 617.415 69.4451 617.6 69.267C617.79 69.089 618.015 69 618.276 69C618.538 69 618.761 69.089 618.947 69.267C619.136 69.4451 619.231 69.6591 619.231 69.9091C619.231 70.1591 619.136 70.3731 618.947 70.5511C618.761 70.7292 618.538 70.8182 618.276 70.8182ZM622.732 75.75V81H621.391V72.2727H622.687V73.6364H622.8C623.005 73.1932 623.316 72.8371 623.732 72.5682C624.149 72.2955 624.687 72.1591 625.346 72.1591C625.937 72.1591 626.454 72.2803 626.897 72.5227C627.34 72.7614 627.685 73.125 627.931 73.6136C628.177 74.0985 628.3 74.7121 628.3 75.4545V81H626.96V75.5455C626.96 74.8598 626.781 74.3258 626.425 73.9432C626.069 73.5568 625.581 73.3636 624.96 73.3636C624.531 73.3636 624.149 73.4564 623.812 73.642C623.478 73.8277 623.215 74.0985 623.022 74.4545C622.829 74.8106 622.732 75.2424 622.732 75.75Z" fill="black"/>
</svg>
